<svg xmlns="http://www.w3.org/2000/svg" xmlns:xlink="http://www.w3.org/1999/xlink" width="180" zoomAndPan="magnify" viewBox="0 0 135 135.000003" height="180" preserveAspectRatio="xMidYMid meet" version="1.0"><defs><g/><clipPath id="id1"><path d="M 50 55 L 118 55 L 118 134.007812 L 50 134.007812 Z M 50 55 " clip-rule="nonzero"/></clipPath></defs><g clip-path="url(#id1)"><g fill="#ff914d" fill-opacity="1"><g transform="translate(45.711563, 143.509643)"><g><path d="M 27.21875 -14.640625 L 71.796875 -14.640625 L 71.796875 0 L 4.4375 0 L 4.4375 -10.6875 L 48.171875 -73.6875 L 4.5 -73.6875 L 4.5 -88.4375 L 70.828125 -88.4375 L 70.828125 -78 Z M 27.21875 -14.640625 "/></g></g></g></g><g fill="#ff5757" fill-opacity="1"><g transform="translate(3.340434, 91.979869)"><g><path d="M 50.667969 1.730469 C 79.21875 1.730469 97.632812 -19.402344 95.65625 -49.0625 L 46.839844 -49.0625 L 46.839844 -33.863281 L 74.890625 -33.863281 C 72.421875 -23.359375 63.523438 -16.3125 50.917969 -16.3125 C 35.097656 -16.3125 24.964844 -27.683594 24.964844 -43.253906 C 24.964844 -59.074219 35.46875 -70.195312 50.667969 -70.195312 C 60.308594 -70.195312 68.34375 -65.746094 72.542969 -58.207031 L 93.675781 -58.207031 C 88.488281 -76.375 71.308594 -88.238281 50.300781 -88.238281 C 23.976562 -88.238281 5.3125 -69.578125 5.3125 -43.253906 C 5.3125 -16.808594 24.097656 1.730469 50.667969 1.730469 Z M 50.667969 1.730469 "/></g></g></g></svg>