<?xml version="1.0" standalone="no"?>
<!DOCTYPE svg PUBLIC "-//W3C//DTD SVG 20010904//EN"
 "http://www.w3.org/TR/2001/REC-SVG-20010904/DTD/svg10.dtd">
<svg version="1.0" xmlns="http://www.w3.org/2000/svg"
 width="500.000000pt" height="500.000000pt" viewBox="0 0 500.000000 500.000000"
 preserveAspectRatio="xMidYMid meet">

<g transform="translate(0.000000,500.000000) scale(0.100000,-0.100000)"
fill="#000000" stroke="none">
<path d="M0 2500 l0 -2500 2500 0 2500 0 0 2500 0 2500 -2500 0 -2500 0 0
-2500z m1909 1093 c7 -38 14 -78 17 -89 5 -18 -9 -33 -68 -79 l-73 -57 -8 87
-9 88 58 58 c32 33 61 59 64 59 4 0 12 -30 19 -67z m183 -98 c11 -30 13 -45 6
-45 -19 0 -118 33 -118 40 0 5 77 48 90 49 3 1 13 -19 22 -44z m38 -146 c12
-23 20 -42 18 -44 -7 -7 -98 -44 -98 -40 0 7 53 125 56 125 2 0 13 -18 24 -41z
m254 19 c3 -13 6 -33 6 -45 0 -22 -1 -22 -37 -6 -21 8 -49 20 -63 25 -25 10
-25 10 15 28 54 25 72 24 79 -2z m-120 -127 l29 -78 71 -17 c87 -20 100 -20
116 -1 18 22 73 18 104 -6 51 -40 28 -128 -38 -145 -33 -8 -81 19 -95 54 -11
27 -22 32 -92 50 l-80 20 -87 -38 c-70 -31 -89 -36 -97 -25 -15 18 -69 175
-63 180 8 8 182 84 193 84 6 1 24 -34 39 -78z m-452 -218 c13 -43 23 -82 23
-86 0 -9 -151 -77 -171 -77 -12 0 -17 13 -39 96 l-13 52 82 45 c44 25 84 46
88 46 3 1 17 -34 30 -76z m502 -8 c8 -8 17 -23 21 -34 3 -11 35 -31 77 -50
l72 -32 78 32 c44 17 80 30 82 28 4 -6 66 -213 66 -221 0 -8 -139 -118 -149
-118 -4 0 -27 52 -52 116 l-44 116 -69 35 c-58 29 -73 33 -93 24 -49 -22 -93
7 -93 63 0 46 71 74 104 41z m-199 -112 c19 -42 32 -80 28 -83 -14 -13 -177
-59 -186 -53 -13 8 -68 135 -62 142 6 6 163 68 177 70 4 1 23 -34 43 -76z
m208 -362 l26 -39 -39 -16 c-22 -9 -57 -18 -77 -22 -35 -5 -41 -2 -87 44 l-49
50 59 7 c33 3 68 7 79 9 54 9 63 5 88 -33z m-211 -28 c26 -26 48 -51 48 -56 0
-5 -20 -7 -45 -5 -48 6 -195 71 -195 87 0 6 26 12 58 14 31 2 64 4 72 5 8 1
36 -19 62 -45z m-544 -1230 c-28 -4 -28 -5 -28 -78 0 -41 -4 -77 -10 -80 -6
-4 -10 23 -10 74 0 79 0 80 -27 84 -16 2 1 4 37 4 36 0 53 -2 38 -4z m190 0
c-46 -4 -48 -6 -48 -34 0 -25 4 -29 29 -29 17 0 33 -4 36 -10 4 -6 -8 -10 -29
-10 -33 0 -36 -2 -36 -30 0 -29 2 -30 45 -30 25 0 45 -5 45 -11 0 -6 -21 -9
-52 -7 l-53 3 -3 83 -3 82 58 -2 c57 -2 57 -2 11 -5z m257 -13 c10 -11 15 -23
11 -27 -3 -4 -13 3 -22 15 -33 47 -74 20 -74 -48 0 -25 5 -51 12 -58 17 -17
49 -15 64 5 7 10 15 15 19 11 4 -3 -3 -16 -15 -28 -25 -25 -66 -21 -87 7 -19
24 -16 103 4 125 21 24 65 23 88 -2z m145 -15 c0 -33 2 -35 35 -35 33 0 35 2
35 35 0 19 5 35 10 35 6 0 10 -35 10 -86 0 -54 -4 -83 -10 -79 -5 3 -10 22
-10 41 0 32 -2 34 -35 34 -34 0 -35 -1 -35 -40 0 -22 -4 -40 -10 -40 -6 0 -10
35 -10 85 0 50 4 85 10 85 6 0 10 -16 10 -35z m270 -31 l35 -59 3 63 c4 94 22
75 22 -24 0 -98 -5 -99 -55 -15 -16 28 -33 51 -37 51 -5 0 -8 -27 -8 -60 0
-33 -4 -60 -10 -60 -6 0 -10 35 -10 86 0 102 9 105 60 18z m279 52 c7 -8 14
-29 17 -48 12 -73 -40 -127 -91 -94 -22 14 -25 23 -25 74 0 32 5 63 12 70 16
16 73 15 87 -2z m151 -61 l0 -75 46 0 c27 0 43 -4 39 -10 -3 -5 -28 -10 -56
-10 l-49 0 0 85 c0 50 4 85 10 85 6 0 10 -32 10 -75z m294 53 c16 -23 21 -94
8 -114 -8 -13 -46 -34 -61 -34 -6 0 -20 9 -31 20 -25 25 -28 111 -4 134 23 24
70 20 88 -6z m224 10 c14 -14 16 -38 3 -38 -5 0 -11 9 -14 20 -3 11 -13 20
-24 20 -37 0 -44 -15 -41 -76 3 -58 3 -59 33 -59 23 0 31 5 33 23 2 15 -2 22
-12 22 -9 0 -16 5 -16 10 0 6 12 10 26 10 22 0 25 -3 22 -32 -2 -23 -11 -37
-29 -47 -24 -13 -29 -13 -53 2 -23 16 -26 24 -26 75 0 32 5 63 12 70 16 16 70
16 86 0z m152 -18 c18 -44 28 -45 47 -6 9 20 20 36 25 36 12 0 10 -6 -12 -50
-11 -22 -20 -55 -20 -75 0 -19 -4 -35 -10 -35 -5 0 -10 14 -10 30 0 17 -11 53
-25 80 -14 28 -21 50 -16 50 5 0 14 -14 21 -30z"/>
<path d="M2506 3107 c-36 -26 4 -84 42 -61 23 15 26 38 7 58 -20 19 -26 20
-49 3z"/>
<path d="M2250 2971 c0 -15 6 -21 21 -21 14 0 19 5 17 17 -5 26 -38 29 -38 4z"/>
<path d="M2642 1271 c-9 -5 -12 -26 -10 -67 3 -54 5 -59 27 -62 31 -5 51 21
51 66 0 60 -30 88 -68 63z"/>
<path d="M3081 1266 c-7 -8 -11 -37 -9 -68 3 -47 6 -53 26 -56 13 -2 30 2 38
8 17 15 19 101 2 118 -16 16 -43 15 -57 -2z"/>
</g>
</svg>
